# xmcd
#
# Track frame offsets:
#	150
#	10760
#	22470
#	34445
#	46732
#	61857
#	77720
#	93765
#	111282
#	130580
#	145680
#	164340
#	185412
#	204140
#	223340
#	243320
#
# Disc length: 3529 seconds
#
# Revision: 1
# Processed by: cddbd v1.4PL0 Copyright (c) Steve Scherf et al.
# Submitted via: CDmax 1.9
#
DISCID=d60dc710
DTITLE=Bobby Bland - Blues and Ballads
DYEAR=1999
DGENRE=Blues
TTITLE0=I've Been Wrong So Long
TTITLE1=If I Hadn't Called You Back
TTITLE2=Ain't Nothing You Can Do
TTITLE3=Share Your Love With Me
TTITLE4=Touch Of The Blues
TTITLE5=Save Your Love For Me
TTITLE6=Georgia On My Mind
TTITLE7=(If Loving You Is Wrong) I Don't Want To Be Right
TTITLE8=I've Got To Use My Imagination
TTITLE9=Lovin' On Borrowed Time
TTITLE10=You've Always Got The Blues
TTITLE11=Night Games
TTITLE12=This Bitter Earth
TTITLE13=Someone To Belong To
TTITLE14=Never Let Me Go
TTITLE15=It's All In The Game
EXTD=
EXTT0=
EXTT1=
EXTT2=
EXTT3=
EXTT4=
EXTT5=
EXTT6=
EXTT7=
EXTT8=
EXTT9=
EXTT10=
EXTT11=
EXTT12=
EXTT13=
EXTT14=
EXTT15=
PLAYORDER=
